<?xml version="1.0" encoding="UTF-8"?>
<svg id="Layer_2" data-name="Layer 2" xmlns="http://www.w3.org/2000/svg" viewBox="0 0 713.229 1120.85">
  <defs>
    <style>
      .cls-1 {
        fill: #000;
        stroke-width: 0px;
      }
    </style>
  </defs>
  <g id="_Layer_" data-name="&amp;lt;Layer&amp;gt;">
    <g>
      <path class="cls-1" d="M713.229,169.222l-16.103-16.103V58.801c0-.45-.18-.87-.49-1.19l-41.02-41.02c-.31-.31-.74-.49-1.18-.49h-64.986l-16.101-16.101H220.041l-16.101,16.101h-77.114c-.45,0-.87.18-1.19.49L16.586,125.641c-.31.32-.49.74-.49,1.18v360.306L0,503.222v469.043l16.096,16.096v76.57c0,.44.18.86.49,1.18l41.02,41.02c.32.32.74.49,1.18.49h354.69c.45,0,.87-.17,1.19-.49l55.88-55.88h0s22.966,0,22.966,0l108.79-108.79h59.754c.44,0,.87-.18,1.18-.49l33.4-33.4c.31-.32.49-.74.49-1.18v-253.023l16.103-16.103V169.222ZM693.786,906.691l-32.42,32.43h-82.72c-.45,0-.87.17-1.18.48l-164.68,164.68H59.486l-40.05-40.05V127.521L127.516,19.441h526.23l40.04,40.05v847.2Z"/>
      <path class="cls-1" d="M607.141,952.089l-163.917,165.421H89.233c-.923,0-1.67.747-1.67,1.67s.747,1.67,1.67,1.67h354.686c.447,0,.874-.179,1.187-.496l164.41-165.917c.649-.652.643-1.712-.013-2.361-.649-.649-1.712-.643-2.361.013Z"/>
      <path class="cls-1" d="M134.436,36.141l-98.3,98.29v922.89l30.27,30.26h339.47l159.78-159.78c3.47-3.47,8.08-5.38,12.99-5.38h75.8l22.64-22.64V66.401l-30.26-30.26H134.436ZM104.09,987.251h-10.828v-10.827h10.828v10.827ZM104.09,965.596h-10.828v-10.827h10.828v10.827ZM104.09,943.941h-10.828v-10.827h10.828v10.827ZM193.456,1064.391v-29.84h43.92l-29.83,29.84h-14.09ZM243.256,1064.381l-.01.01h-14.09l29.83-29.84h17.43l-29.83,29.83h-3.33ZM264.856,1064.381l29.83-29.83h17.43l-29.83,29.83h-17.43ZM294.551,110.496c0-1.613,1.307-2.92,2.92-2.92s2.92,1.307,2.92,2.92-1.308,2.92-2.92,2.92-2.92-1.307-2.92-2.92ZM314.638,1064.385h-14.087l29.834-29.834h17.427l-29.834,29.834h-3.34ZM322.871,110.496c0-2.304,1.868-4.171,4.171-4.171s4.172,1.868,4.172,4.171-1.868,4.171-4.172,4.171-4.171-1.867-4.171-4.171ZM350.334,1064.385h-14.087l29.834-29.834h17.427l-29.834,29.834h-3.34ZM350.655,110.496c0-3.291,2.668-5.959,5.959-5.959s5.959,2.668,5.959,5.959-2.668,5.959-5.959,5.959-5.959-2.668-5.959-5.959ZM382.014,110.496c0-2.304,1.868-4.171,4.172-4.171s4.171,1.868,4.171,4.171-1.868,4.171-4.171,4.171-4.172-1.867-4.172-4.171ZM389.37,1064.385h-17.427l29.834-29.834h17.427l-29.834,29.834ZM412.838,110.496c0-1.613,1.307-2.92,2.92-2.92s2.92,1.307,2.92,2.92-1.307,2.92-2.92,2.92-2.92-1.307-2.92-2.92ZM140.875,52.839l-88.037,88.035v907.35c0,.923-.747,1.67-1.67,1.67s-1.67-.747-1.67-1.67V140.183c0-.444.176-.867.489-1.181l89.016-89.014c.313-.313.737-.489,1.181-.489h497.552c.923,0,1.67.747,1.67,1.67s-.747,1.67-1.67,1.67H140.875ZM649.407,879.508h-7.606v7.606h-5.235v-7.606h-7.606v-5.235h7.606v-7.605h5.235v7.605h7.606v5.235ZM649.407,850.514h-7.606v7.606h-5.235v-7.606h-7.606v-5.234h7.606v-7.606h5.235v7.606h7.606v5.234ZM649.407,821.521h-7.606v7.606h-5.235v-7.606h-7.606v-5.234h7.606v-7.606h5.235v7.606h7.606v5.234ZM649.407,792.527h-7.606v7.606h-5.235v-7.606h-7.606v-5.234h7.606v-7.606h5.235v7.606h7.606v5.234Z"/>
    </g>
  </g>
</svg>